<svg xmlns="http://www.w3.org/2000/svg" xmlns:xlink="http://www.w3.org/1999/xlink" style="enable-background:new 0 0 108.35 122.88" id="Layer_1" x="0" y="0" version="1.1" viewBox="0 0 108.35 122.88" xml:space="preserve"><style type="text/css">.st0{fill:#e44d26}.st0,.st1,.st2,.st3{fill-rule:evenodd;clip-rule:evenodd}.st1{fill:#f16529}.st2{fill:#ebebeb}.st3{fill:#fff}</style><g><polygon points="108.35 0 98.48 110.58 54.11 122.88 9.86 110.6 0 0 108.35 0" class="st0"/><polygon points="54.17 113.48 90.03 103.54 98.46 9.04 54.17 9.04 54.17 113.48" class="st1"/><path d="M34.99,36.17h19.19V22.61H20.16l0.32,3.64l3.33,37.38h30.35V50.06H36.23L34.99,36.17L34.99,36.17L34.99,36.17z M38.04,70.41H24.43l1.9,21.3l27.79,7.71l0.06-0.02V85.29l-0.06,0.02l-15.11-4.08L38.04,70.41L38.04,70.41L38.04,70.41z" class="st2"/><path d="M54.13,63.63h16.7l-1.57,17.59L54.13,85.3v14.11l27.81-7.71l0.2-2.29l3.19-35.71l0.33-3.64H54.13V63.63 L54.13,63.63z M54.13,36.14v0.03h32.76l0.27-3.05l0.62-6.88l0.32-3.64H54.13V36.14L54.13,36.14L54.13,36.14z" class="st3"/></g></svg>